<?xml version="1.0" standalone="no"?>
<!DOCTYPE svg PUBLIC "-//W3C//DTD SVG 20010904//EN"
 "http://www.w3.org/TR/2001/REC-SVG-20010904/DTD/svg10.dtd">
<svg version="1.0" xmlns="http://www.w3.org/2000/svg"
 width="240.000000pt" height="240.000000pt" viewBox="0 0 240.000000 240.000000"
 preserveAspectRatio="xMidYMid meet">
<metadata>
Created by potrace 1.11, written by Peter Selinger 2001-2013
</metadata>
<g transform="translate(0.000000,240.000000) scale(0.100000,-0.100000)"
fill="#000000" stroke="none">
<path d="M351 2305 c-104 -33 -205 -135 -236 -240 -23 -73 -22 -1608 0 -1682
31 -105 121 -199 228 -239 50 -18 84 -19 857 -19 l805 0 57 23 c70 28 155 103
190 169 48 88 49 114 46 943 l-3 775 -22 55 c-33 81 -101 153 -181 192 l-67
33 -815 2 c-670 1 -823 -1 -859 -12z m1749 -1567 c0 -5 -37 -8 -83 -8 l-83 0
-53 125 -53 125 -226 -2 -226 -3 -55 -122 -55 -123 -83 0 c-46 0 -83 2 -83 5
0 5 463 1002 492 1059 l20 38 244 -543 c134 -299 244 -547 244 -551z m-1337
1007 c67 -21 145 -85 171 -140 66 -138 24 -307 -97 -388 -23 -16 -54 -31 -69
-34 -16 -3 -28 -8 -28 -10 0 -3 72 -103 160 -224 l160 -219 -98 0 -97 1 -149
215 c-82 118 -154 213 -160 211 -7 -2 -12 -73 -14 -215 l-2 -212 -80 0 -80 0
0 521 0 521 163 -5 c117 -3 178 -9 220 -22z"/>
<path d="M1531 1317 c-40 -89 -76 -167 -78 -174 -4 -10 30 -13 152 -13 122 0
156 3 152 13 -35 83 -141 324 -146 329 -3 4 -39 -66 -80 -155z"/>
<path d="M540 1455 l0 -168 70 6 c139 12 200 62 200 167 0 107 -52 151 -187
158 l-83 5 0 -168z"/>
</g>
</svg>
